<svg xmlns="http://www.w3.org/2000/svg" width="600" height="800" viewBox="0 0 600 800" role="img" aria-label="Bags Editorial preview">
  <defs>
    <linearGradient id="bg" x1="0" y1="0" x2="1" y2="1">
      <stop offset="0" stop-color="#fafafa"/>
      <stop offset="1" stop-color="#e4e4e7"/>
    </linearGradient>
    <linearGradient id="card" x1="0" y1="0" x2="0" y2="1">
      <stop offset="0" stop-color="#ffffff"/>
      <stop offset="1" stop-color="#f4f4f5"/>
    </linearGradient>
  </defs>

  <rect width="600" height="800" rx="28" fill="url(#bg)"/>

  <rect x="72" y="92" width="456" height="616" rx="24" fill="url(#card)" stroke="#d4d4d8"/>

  <!-- Bag icon -->
  <g transform="translate(0,0)" fill="none" stroke="#18181b" stroke-width="10" stroke-linecap="round" stroke-linejoin="round">
    <path d="M210 318c0-46 38-84 84-84s84 38 84 84"/>
    <path d="M194 318h212l-18 248H212l-18-248z"/>
    <path d="M240 318v-18"/>
    <path d="M360 318v-18"/>
  </g>

  <!-- Small grid hint -->
  <g fill="#a1a1aa">
    <rect x="120" y="620" width="160" height="16" rx="8"/>
    <rect x="320" y="620" width="160" height="16" rx="8"/>
    <rect x="120" y="652" width="220" height="12" rx="6"/>
    <rect x="120" y="676" width="140" height="12" rx="6"/>
  </g>

  <text x="300" y="740" text-anchor="middle" font-family="system-ui, -apple-system, Segoe UI, Roboto, sans-serif" font-size="22" fill="#18181b">Bags Editorial</text>
</svg>
