<svg xmlns="http://www.w3.org/2000/svg" width="600" height="800" viewBox="0 0 600 800" role="img" aria-label="Beauty preview">
  <defs>
    <linearGradient id="bg" x1="0" y1="0" x2="1" y2="1">
      <stop offset="0" stop-color="#fafafa"/>
      <stop offset="1" stop-color="#e4e4e7"/>
    </linearGradient>
    <linearGradient id="card" x1="0" y1="0" x2="0" y2="1">
      <stop offset="0" stop-color="#ffffff"/>
      <stop offset="1" stop-color="#f4f4f5"/>
    </linearGradient>
  </defs>

  <rect width="600" height="800" rx="28" fill="url(#bg)"/>
  <rect x="72" y="92" width="456" height="616" rx="24" fill="url(#card)" stroke="#d4d4d8"/>

  <!-- Lipstick icon -->
  <g fill="none" stroke="#18181b" stroke-width="10" stroke-linecap="round" stroke-linejoin="round">
    <path d="M270 270h60"/>
    <path d="M270 270v70c0 18 14 32 32 32h-4c18 0 32-14 32-32v-70"/>
    <path d="M258 372h84"/>
    <path d="M250 372v180c0 10 8 18 18 18h64c10 0 18-8 18-18V372"/>
    <path d="M272 252l28-32 28 32"/>
  </g>

  <g fill="#a1a1aa">
    <rect x="160" y="600" width="280" height="14" rx="7"/>
    <rect x="160" y="626" width="220" height="12" rx="6"/>
    <rect x="160" y="648" width="260" height="12" rx="6"/>
  </g>

  <text x="300" y="740" text-anchor="middle" font-family="system-ui, -apple-system, Segoe UI, Roboto, sans-serif" font-size="22" fill="#18181b">Beauty</text>
</svg>
