<svg width="400" height="300" xmlns="http://www.w3.org/2000/svg">
  <rect width="400" height="300" fill="#ffffff"/>
  <rect x="20" y="20" width="360" height="30" rx="4" fill="#f5f5f5"/>
  <rect x="30" y="28" width="60" height="14" rx="2" fill="#1a1a1a" opacity="0.8"/>
  <rect x="20" y="65" width="175" height="150" rx="12" fill="#fafafa"/>
  <rect x="35" y="80" width="145" height="100" rx="8" fill="#3b82f6" opacity="0.1"/>
  <rect x="205" y="65" width="175" height="150" rx="8" fill="#fafafa"/>
  <text x="292" y="100" font-family="system-ui, sans-serif" font-size="16" font-weight="700" fill="#1a1a1a" text-anchor="middle">Clean Single</text>
  <text x="292" y="120" font-family="system-ui, sans-serif" font-size="10" fill="#737373" text-anchor="middle">Minimal Product Focus</text>
  <text x="292" y="150" font-family="system-ui, sans-serif" font-size="18" font-weight="700" fill="#3b82f6" text-anchor="middle">$99.99</text>
  <rect x="220" y="170" width="145" height="30" rx="6" fill="#3b82f6"/>
  <text x="292" y="190" font-family="system-ui, sans-serif" font-size="11" font-weight="600" fill="#ffffff" text-anchor="middle">Order Now</text>
  <rect x="20" y="230" width="85" height="50" rx="6" fill="#fafafa"/>
  <rect x="115" y="230" width="85" height="50" rx="6" fill="#fafafa"/>
  <rect x="210" y="230" width="85" height="50" rx="6" fill="#fafafa"/>
  <rect x="305" y="230" width="75" height="50" rx="6" fill="#fafafa"/>
</svg>
