<svg width="480" height="300" viewBox="0 0 480 300" fill="none" xmlns="http://www.w3.org/2000/svg">
  <defs>
    <linearGradient id="bg" x1="0" y1="0" x2="480" y2="300" gradientUnits="userSpaceOnUse">
      <stop stop-color="#0b1220"/>
      <stop offset="1" stop-color="#0f172a"/>
    </linearGradient>
    <linearGradient id="accent" x1="70" y1="70" x2="410" y2="230" gradientUnits="userSpaceOnUse">
      <stop stop-color="#22c55e"/>
      <stop offset="1" stop-color="#10b981"/>
    </linearGradient>
  </defs>

  <rect x="0" y="0" width="480" height="300" rx="18" fill="url(#bg)"/>

  <!-- Header bar -->
  <rect x="22" y="20" width="436" height="34" rx="12" fill="rgba(148,163,184,0.14)"/>
  <rect x="34" y="28" width="18" height="18" rx="6" fill="url(#accent)"/>
  <rect x="58" y="30" width="120" height="6" rx="3" fill="rgba(226,232,240,0.8)"/>
  <rect x="58" y="40" width="74" height="5" rx="2.5" fill="rgba(148,163,184,0.7)"/>
  <rect x="360" y="28" width="80" height="18" rx="9" fill="url(#accent)"/>

  <!-- Split hero -->
  <rect x="22" y="72" width="268" height="160" rx="16" fill="rgba(255,255,255,0.06)"/>
  <rect x="40" y="92" width="140" height="10" rx="5" fill="rgba(34,197,94,0.9)"/>
  <rect x="40" y="112" width="220" height="14" rx="7" fill="rgba(226,232,240,0.88)"/>
  <rect x="40" y="134" width="196" height="10" rx="5" fill="rgba(148,163,184,0.8)"/>
  <rect x="40" y="154" width="172" height="10" rx="5" fill="rgba(148,163,184,0.8)"/>
  <rect x="40" y="180" width="110" height="18" rx="9" fill="url(#accent)"/>
  <rect x="156" y="180" width="92" height="18" rx="9" fill="rgba(148,163,184,0.22)"/>

  <rect x="306" y="72" width="152" height="160" rx="16" fill="rgba(255,255,255,0.06)"/>
  <rect x="320" y="86" width="124" height="116" rx="12" fill="rgba(2,6,23,0.55)"/>
  <path d="M332 176C350 140 362 126 382 124C404 122 416 144 432 156" stroke="rgba(34,197,94,0.85)" stroke-width="4" stroke-linecap="round"/>

  <!-- Sticky CTA bar -->
  <rect x="70" y="250" width="340" height="34" rx="17" fill="rgba(2,6,23,0.70)" stroke="rgba(148,163,184,0.18)"/>
  <rect x="86" y="262" width="120" height="8" rx="4" fill="rgba(226,232,240,0.85)"/>
  <rect x="318" y="258" width="76" height="18" rx="9" fill="url(#accent)"/>
</svg>
