<svg xmlns="http://www.w3.org/2000/svg" width="600" height="800" viewBox="0 0 600 800" role="img" aria-label="Furniture preview">
  <defs>
    <linearGradient id="bg" x1="0" y1="0" x2="1" y2="1">
      <stop offset="0" stop-color="#fafafa"/>
      <stop offset="1" stop-color="#e4e4e7"/>
    </linearGradient>
    <linearGradient id="card" x1="0" y1="0" x2="0" y2="1">
      <stop offset="0" stop-color="#ffffff"/>
      <stop offset="1" stop-color="#f4f4f5"/>
    </linearGradient>
  </defs>

  <rect width="600" height="800" rx="28" fill="url(#bg)"/>
  <rect x="72" y="92" width="456" height="616" rx="24" fill="url(#card)" stroke="#d4d4d8"/>

  <!-- Chair icon -->
  <g fill="none" stroke="#18181b" stroke-width="10" stroke-linecap="round" stroke-linejoin="round">
    <path d="M240 330c0-44 36-80 80-80s80 36 80 80v70H240v-70z"/>
    <path d="M220 400h240v70c0 38-30 68-68 68H288c-38 0-68-30-68-68v-70z"/>
    <path d="M250 606v-68"/>
    <path d="M390 606v-68"/>
  </g>

  <g fill="#a1a1aa">
    <rect x="150" y="630" width="300" height="14" rx="7"/>
    <rect x="150" y="656" width="220" height="12" rx="6"/>
  </g>

  <text x="300" y="740" text-anchor="middle" font-family="system-ui, -apple-system, Segoe UI, Roboto, sans-serif" font-size="22" fill="#18181b">Furniture</text>
</svg>
