<svg width="400" height="300" xmlns="http://www.w3.org/2000/svg">
  <rect width="400" height="300" fill="#ffffff"/>
  <rect x="20" y="20" width="360" height="30" rx="4" fill="#f4f4f5"/>
  <rect x="30" y="28" width="60" height="14" rx="2" fill="#18181b" opacity="0.8"/>
  <rect x="320" y="25" width="50" height="20" rx="4" fill="#2563eb"/>
  <rect x="20" y="65" width="220" height="150" rx="8" fill="#fafafa"/>
  <rect x="30" y="75" width="200" height="110" rx="6" fill="#2563eb" opacity="0.1"/>
  <rect x="30" y="195" width="40" height="30" rx="4" fill="#fafafa" stroke="#2563eb" stroke-width="2"/>
  <rect x="78" y="195" width="40" height="30" rx="4" fill="#fafafa"/>
  <rect x="126" y="195" width="40" height="30" rx="4" fill="#fafafa"/>
  <rect x="174" y="195" width="40" height="30" rx="4" fill="#fafafa"/>
  <rect x="255" y="65" width="125" height="150" rx="8" fill="#fafafa"/>
  <text x="317" y="95" font-family="system-ui, sans-serif" font-size="14" font-weight="700" fill="#18181b" text-anchor="middle">Gallery Pro</text>
  <text x="317" y="115" font-family="system-ui, sans-serif" font-size="18" font-weight="800" fill="#2563eb" text-anchor="middle">$299</text>
  <rect x="265" y="130" width="105" height="20" rx="4" fill="#f4f4f5"/>
  <rect x="265" y="155" width="105" height="20" rx="4" fill="#f4f4f5"/>
  <rect x="265" y="185" width="105" height="25" rx="4" fill="#2563eb"/>
  <rect x="20" y="230" width="70" height="50" rx="4" fill="#fafafa"/>
  <rect x="100" y="230" width="70" height="50" rx="4" fill="#fafafa"/>
  <rect x="180" y="230" width="70" height="50" rx="4" fill="#fafafa"/>
  <rect x="260" y="230" width="70" height="50" rx="4" fill="#fafafa"/>
  <rect x="340" y="230" width="40" height="50" rx="4" fill="#fafafa"/>
</svg>
