<svg xmlns="http://www.w3.org/2000/svg" width="600" height="800" viewBox="0 0 600 800" role="img" aria-label="JewelryOS preview">
  <defs>
    <linearGradient id="bg" x1="0" y1="0" x2="1" y2="1">
      <stop offset="0" stop-color="#fafafa"/>
      <stop offset="1" stop-color="#e4e4e7"/>
    </linearGradient>
    <linearGradient id="card" x1="0" y1="0" x2="0" y2="1">
      <stop offset="0" stop-color="#ffffff"/>
      <stop offset="1" stop-color="#f4f4f5"/>
    </linearGradient>
  </defs>

  <rect width="600" height="800" rx="28" fill="url(#bg)"/>
  <rect x="72" y="92" width="456" height="616" rx="24" fill="url(#card)" stroke="#d4d4d8"/>

  <!-- Ring icon -->
  <g fill="none" stroke="#18181b" stroke-width="10" stroke-linecap="round" stroke-linejoin="round">
    <path d="M300 250l-86 82 86 254 86-254-86-82z"/>
    <path d="M246 332c12 28 38 46 54 46s42-18 54-46"/>
    <path d="M262 332h76"/>
  </g>

  <g fill="#a1a1aa">
    <rect x="150" y="600" width="300" height="14" rx="7"/>
    <rect x="150" y="626" width="220" height="12" rx="6"/>
    <rect x="150" y="648" width="260" height="12" rx="6"/>
  </g>

  <text x="300" y="740" text-anchor="middle" font-family="system-ui, -apple-system, Segoe UI, Roboto, sans-serif" font-size="22" fill="#18181b">JewelryOS</text>
</svg>
