<svg width="400" height="300" xmlns="http://www.w3.org/2000/svg">
  <defs>
    <linearGradient id="grad-organic" x1="0%" y1="0%" x2="100%" y2="100%">
      <stop offset="0%" style="stop-color:#f0fdf4;stop-opacity:1" />
      <stop offset="100%" style="stop-color:#16a34a;stop-opacity:0.3" />
    </linearGradient>
  </defs>
  <rect width="400" height="300" fill="url(#grad-organic)"/>
  <rect x="20" y="20" width="360" height="40" rx="4" fill="#16a34a" opacity="0.2"/>
  <circle cx="45" cy="40" r="12" fill="#16a34a"/>
  <rect x="70" y="32" width="80" height="16" rx="2" fill="#166534" opacity="0.8"/>
  <rect x="20" y="80" width="360" height="100" rx="8" fill="#16a34a" opacity="0.15"/>
  <text x="200" y="125" font-family="system-ui, sans-serif" font-size="28" font-weight="700" fill="#166534" text-anchor="middle" opacity="0.9">Organic</text>
  <text x="200" y="155" font-family="system-ui, sans-serif" font-size="12" fill="#166534" text-anchor="middle" opacity="0.6">Store Template</text>
  <rect x="20" y="200" width="110" height="80" rx="6" fill="#16a34a" opacity="0.2"/>
  <rect x="145" y="200" width="110" height="80" rx="6" fill="#16a34a" opacity="0.2"/>
  <rect x="270" y="200" width="110" height="80" rx="6" fill="#16a34a" opacity="0.2"/>
  <rect x="30" y="210" width="90" height="45" rx="4" fill="#16a34a" opacity="0.3"/>
  <rect x="155" y="210" width="90" height="45" rx="4" fill="#16a34a" opacity="0.3"/>
  <rect x="280" y="210" width="90" height="45" rx="4" fill="#16a34a" opacity="0.3"/>
  <rect x="30" y="262" width="60" height="8" rx="2" fill="#166534" opacity="0.5"/>
  <rect x="155" y="262" width="60" height="8" rx="2" fill="#166534" opacity="0.5"/>
  <rect x="280" y="262" width="60" height="8" rx="2" fill="#166534" opacity="0.5"/>
</svg>