<svg xmlns="http://www.w3.org/2000/svg" width="960" height="600" viewBox="0 0 960 600" role="img" aria-label="Papercraft template preview">
  <defs>
    <linearGradient id="paper" x1="0" y1="0" x2="1" y2="1">
      <stop offset="0" stop-color="#fff7ed"/>
      <stop offset="0.55" stop-color="#fef3c7"/>
      <stop offset="1" stop-color="#e0f2fe"/>
    </linearGradient>
    <filter id="shadow" x="-30%" y="-30%" width="160%" height="160%">
      <feDropShadow dx="0" dy="12" stdDeviation="16" flood-color="#000" flood-opacity="0.22"/>
    </filter>
  </defs>

  <rect width="960" height="600" fill="url(#paper)"/>

  <rect x="64" y="64" width="832" height="472" rx="26" fill="#ffffff" fill-opacity="0.82" stroke="#0f172a" stroke-opacity="0.08" filter="url(#shadow)"/>

  <rect x="96" y="96" width="280" height="40" rx="12" fill="#0f172a" fill-opacity="0.06"/>
  <rect x="396" y="104" width="150" height="24" rx="12" fill="#0f172a" fill-opacity="0.08"/>
  <rect x="554" y="104" width="140" height="24" rx="12" fill="#0f172a" fill-opacity="0.08"/>
  <rect x="702" y="104" width="150" height="24" rx="12" fill="#0f172a" fill-opacity="0.08"/>

  <rect x="96" y="160" width="520" height="70" rx="16" fill="#0f172a" fill-opacity="0.06"/>
  <rect x="96" y="244" width="420" height="22" rx="11" fill="#0f172a" fill-opacity="0.06"/>
  <rect x="96" y="276" width="380" height="22" rx="11" fill="#0f172a" fill-opacity="0.06"/>

  <rect x="96" y="326" width="240" height="44" rx="18" fill="#f97316" fill-opacity="0.95"/>
  <rect x="352" y="326" width="200" height="44" rx="18" fill="#0f172a" fill-opacity="0.07"/>

  <rect x="96" y="404" width="250" height="96" rx="18" fill="#0f172a" fill-opacity="0.05"/>
  <rect x="360" y="404" width="250" height="96" rx="18" fill="#0f172a" fill-opacity="0.05"/>
  <rect x="624" y="404" width="240" height="96" rx="18" fill="#0f172a" fill-opacity="0.05"/>

  <text x="112" y="122" font-family="ui-sans-serif, system-ui, -apple-system, Segoe UI, Roboto, Arial" font-size="18" fill="#0f172a" opacity="0.85">Papercraft</text>
  <text x="112" y="206" font-family="ui-sans-serif, system-ui, -apple-system, Segoe UI, Roboto, Arial" font-size="38" font-weight="700" fill="#0f172a" opacity="0.92">Clean, elegant landing</text>
  <text x="112" y="244" font-family="ui-sans-serif, system-ui, -apple-system, Segoe UI, Roboto, Arial" font-size="16" fill="#334155" opacity="0.82">Feature cards • testimonial • flexible footer</text>
</svg>
