<svg xmlns="http://www.w3.org/2000/svg" width="600" height="800" viewBox="0 0 600 800" role="img" aria-label="Perfume preview">
  <defs>
    <linearGradient id="bg" x1="0" y1="0" x2="1" y2="1">
      <stop offset="0" stop-color="#fafafa"/>
      <stop offset="1" stop-color="#e4e4e7"/>
    </linearGradient>
    <linearGradient id="card" x1="0" y1="0" x2="0" y2="1">
      <stop offset="0" stop-color="#ffffff"/>
      <stop offset="1" stop-color="#f4f4f5"/>
    </linearGradient>
  </defs>

  <rect width="600" height="800" rx="28" fill="url(#bg)"/>
  <rect x="72" y="92" width="456" height="616" rx="24" fill="url(#card)" stroke="#d4d4d8"/>

  <!-- Perfume bottle icon -->
  <g fill="none" stroke="#18181b" stroke-width="10" stroke-linecap="round" stroke-linejoin="round">
    <path d="M280 240h40"/>
    <path d="M270 240v40h60v-40"/>
    <path d="M250 280h100"/>
    <path d="M240 280v240c0 20 16 36 36 36h48c20 0 36-16 36-36V280"/>
    <path d="M260 360h80"/>
    <path d="M290 430c10 10 10 26 0 36"/>
    <path d="M310 430c10 10 10 26 0 36"/>
  </g>

  <g fill="#a1a1aa">
    <rect x="150" y="610" width="300" height="14" rx="7"/>
    <rect x="150" y="636" width="240" height="12" rx="6"/>
    <rect x="150" y="658" width="260" height="12" rx="6"/>
  </g>

  <text x="300" y="740" text-anchor="middle" font-family="system-ui, -apple-system, Segoe UI, Roboto, sans-serif" font-size="22" fill="#18181b">Perfume</text>
</svg>
