<svg width="400" height="300" xmlns="http://www.w3.org/2000/svg">
  <defs>
    <linearGradient id="grad-pro-mosaic" x1="0%" y1="0%" x2="100%" y2="100%">
      <stop offset="0%" style="stop-color:#0b1220;stop-opacity:1" />
      <stop offset="100%" style="stop-color:#f472b6;stop-opacity:0.35" />
    </linearGradient>
  </defs>
  <rect width="400" height="300" fill="url(#grad-pro-mosaic)"/>
  <rect x="20" y="20" width="360" height="40" rx="8" fill="#ffffff" opacity="0.06"/>
  <circle cx="45" cy="40" r="12" fill="#f472b6"/>
  <rect x="70" y="32" width="110" height="16" rx="3" fill="#ffffff" opacity="0.75"/>

  <rect x="20" y="80" width="360" height="110" rx="12" fill="#ffffff" opacity="0.05"/>
  <text x="200" y="130" font-family="system-ui, sans-serif" font-size="30" font-weight="750" fill="#ffffff" text-anchor="middle" opacity="0.92">Mosaic</text>
  <text x="200" y="158" font-family="system-ui, sans-serif" font-size="12" fill="#e5e7eb" text-anchor="middle" opacity="0.75">Pro Variant Template</text>

  <rect x="20" y="210" width="110" height="70" rx="10" fill="#f472b6" opacity="0.22"/>
  <rect x="145" y="210" width="110" height="70" rx="10" fill="#f472b6" opacity="0.18"/>
  <rect x="270" y="210" width="110" height="70" rx="10" fill="#f472b6" opacity="0.14"/>

  <rect x="30" y="220" width="90" height="40" rx="8" fill="#000000" opacity="0.18"/>
  <rect x="155" y="220" width="90" height="40" rx="8" fill="#000000" opacity="0.16"/>
  <rect x="280" y="220" width="90" height="40" rx="8" fill="#000000" opacity="0.14"/>

  <rect x="30" y="265" width="66" height="8" rx="3" fill="#ffffff" opacity="0.55"/>
  <rect x="155" y="265" width="66" height="8" rx="3" fill="#ffffff" opacity="0.55"/>
  <rect x="280" y="265" width="66" height="8" rx="3" fill="#ffffff" opacity="0.55"/>
</svg>
