<svg width="400" height="300" xmlns="http://www.w3.org/2000/svg">
  <rect width="400" height="300" fill="#faf9f7"/>
  <rect x="0" y="0" width="400" height="25" fill="#ea580c"/>
  <text x="200" y="17" font-family="system-ui, sans-serif" font-size="9" fill="#ffffff" text-anchor="middle">🎉 20% OFF with code SAVE20</text>
  <rect x="20" y="40" width="360" height="35" rx="4" fill="#ffffff"/>
  <circle cx="45" cy="57" r="12" fill="#ea580c"/>
  <rect x="70" y="50" width="70" height="14" rx="2" fill="#1c1917" opacity="0.8"/>
  <rect x="20" y="90" width="200" height="130" rx="12" fill="#ffffff"/>
  <rect x="30" y="100" width="180" height="90" rx="6" fill="#ea580c" opacity="0.1"/>
  <circle cx="120" cy="205" r="4" fill="#ea580c"/>
  <circle cx="135" cy="205" r="4" fill="#d6d3d1"/>
  <circle cx="150" cy="205" r="4" fill="#d6d3d1"/>
  <rect x="235" y="90" width="145" height="130" rx="8" fill="#ffffff"/>
  <text x="250" y="110" font-family="system-ui, sans-serif" font-size="10" font-weight="600" fill="#ea580c">BESTSELLER</text>
  <text x="307" y="135" font-family="system-ui, sans-serif" font-size="16" font-weight="700" fill="#1c1917" text-anchor="middle">Showcase Plus</text>
  <text x="250" y="155" font-family="system-ui, sans-serif" font-size="9" fill="#fbbf24">★★★★★ (127)</text>
  <text x="307" y="180" font-family="system-ui, sans-serif" font-size="16" font-weight="800" fill="#1c1917" text-anchor="middle">$149</text>
  <rect x="245" y="190" width="125" height="25" rx="4" fill="#ea580c"/>
  <rect x="20" y="235" width="85" height="50" rx="4" fill="#ffffff"/>
  <rect x="115" y="235" width="85" height="50" rx="4" fill="#ffffff"/>
  <rect x="210" y="235" width="85" height="50" rx="4" fill="#ffffff"/>
  <rect x="305" y="235" width="75" height="50" rx="4" fill="#ffffff"/>
</svg>
