<svg width="400" height="300" xmlns="http://www.w3.org/2000/svg">
  <rect width="400" height="300" fill="#f8fafc"/>
  <rect x="20" y="20" width="360" height="40" rx="8" fill="#ffffff" filter="url(#shadow)"/>
  <defs>
    <filter id="shadow" x="-20%" y="-20%" width="140%" height="140%">
      <feDropShadow dx="0" dy="2" stdDeviation="3" flood-opacity="0.1"/>
    </filter>
  </defs>
  <rect x="30" y="30" width="36" height="20" rx="5" fill="#6366f1"/>
  <rect x="75" y="32" width="60" height="16" rx="2" fill="#0f172a" opacity="0.8"/>
  <rect x="20" y="80" width="175" height="100" rx="8" fill="#ffffff"/>
  <text x="107" y="120" font-family="system-ui, sans-serif" font-size="18" font-weight="800" fill="#0f172a" text-anchor="middle">Snow Shop</text>
  <text x="107" y="145" font-family="system-ui, sans-serif" font-size="10" fill="#64748b" text-anchor="middle">Crisp & Clean</text>
  <rect x="50" y="160" width="114" height="12" rx="6" fill="#6366f1"/>
  <rect x="210" y="80" width="80" height="100" rx="8" fill="#ffffff"/>
  <rect x="300" y="80" width="80" height="100" rx="8" fill="#ffffff"/>
  <rect x="20" y="200" width="110" height="80" rx="8" fill="#ffffff"/>
  <rect x="145" y="200" width="110" height="80" rx="8" fill="#ffffff"/>
  <rect x="270" y="200" width="110" height="80" rx="8" fill="#ffffff"/>
</svg>
