<svg width="480" height="300" viewBox="0 0 480 300" fill="none" xmlns="http://www.w3.org/2000/svg">
  <defs>
    <linearGradient id="bg" x1="0" y1="0" x2="480" y2="300" gradientUnits="userSpaceOnUse">
      <stop stop-color="#ffffff"/>
      <stop offset="1" stop-color="#f8fafc"/>
    </linearGradient>
    <linearGradient id="accent" x1="40" y1="70" x2="250" y2="220" gradientUnits="userSpaceOnUse">
      <stop stop-color="#2563eb"/>
      <stop offset="1" stop-color="#60a5fa"/>
    </linearGradient>
  </defs>

  <rect x="0" y="0" width="480" height="300" rx="18" fill="url(#bg)"/>

  <!-- Header -->
  <rect x="22" y="20" width="436" height="34" rx="12" fill="#ffffff" stroke="rgba(15,23,42,0.10)"/>
  <rect x="34" y="28" width="18" height="18" rx="6" fill="#0f172a"/>
  <rect x="58" y="30" width="130" height="6" rx="3" fill="rgba(15,23,42,0.85)"/>
  <rect x="58" y="40" width="86" height="5" rx="2.5" fill="rgba(100,116,139,0.85)"/>
  <rect x="370" y="28" width="70" height="18" rx="9" fill="url(#accent)"/>

  <!-- Split layout -->
  <rect x="22" y="72" width="256" height="202" rx="16" fill="#ffffff" stroke="rgba(15,23,42,0.10)"/>

  <!-- Title + subtitle -->
  <rect x="40" y="92" width="210" height="14" rx="7" fill="rgba(15,23,42,0.90)"/>
  <rect x="40" y="116" width="196" height="8" rx="4" fill="rgba(100,116,139,0.85)"/>
  <rect x="40" y="130" width="160" height="8" rx="4" fill="rgba(100,116,139,0.85)"/>

  <!-- Specs list -->
  <rect x="40" y="152" width="220" height="98" rx="14" fill="#f8fafc" stroke="rgba(15,23,42,0.08)"/>
  <rect x="54" y="166" width="72" height="6" rx="3" fill="rgba(100,116,139,0.9)"/>
  <rect x="180" y="166" width="66" height="6" rx="3" fill="rgba(15,23,42,0.75)"/>

  <rect x="54" y="188" width="72" height="6" rx="3" fill="rgba(100,116,139,0.9)"/>
  <rect x="170" y="188" width="76" height="6" rx="3" fill="rgba(15,23,42,0.75)"/>

  <rect x="54" y="210" width="72" height="6" rx="3" fill="rgba(100,116,139,0.9)"/>
  <rect x="184" y="210" width="62" height="6" rx="3" fill="rgba(15,23,42,0.75)"/>

  <rect x="54" y="232" width="72" height="6" rx="3" fill="rgba(100,116,139,0.9)"/>
  <rect x="176" y="232" width="70" height="6" rx="3" fill="rgba(15,23,42,0.75)"/>

  <!-- Product media card -->
  <rect x="296" y="72" width="162" height="202" rx="16" fill="#f8fafc" stroke="rgba(15,23,42,0.10)"/>
  <rect x="310" y="86" width="134" height="120" rx="12" fill="rgba(37,99,235,0.14)"/>
  <path d="M318 180C340 150 352 142 372 140C398 137 410 160 438 176" stroke="url(#accent)" stroke-width="4" stroke-linecap="round"/>
  <rect x="310" y="216" width="104" height="10" rx="5" fill="rgba(15,23,42,0.85)"/>
  <rect x="310" y="234" width="76" height="8" rx="4" fill="rgba(100,116,139,0.85)"/>
</svg>
