<svg xmlns="http://www.w3.org/2000/svg" width="960" height="600" viewBox="0 0 960 600" role="img" aria-label="Urgency Max template preview">
  <defs>
    <linearGradient id="bg" x1="0" y1="0" x2="1" y2="1">
      <stop offset="0" stop-color="#0f172a"/>
      <stop offset="0.55" stop-color="#1d4ed8"/>
      <stop offset="1" stop-color="#db2777"/>
    </linearGradient>
    <filter id="shadow" x="-30%" y="-30%" width="160%" height="160%">
      <feDropShadow dx="0" dy="14" stdDeviation="18" flood-color="#000" flood-opacity="0.35"/>
    </filter>
  </defs>

  <rect width="960" height="600" fill="url(#bg)"/>

  <rect x="64" y="64" width="832" height="472" rx="26" fill="#0b1220" fill-opacity="0.72" stroke="#ffffff" stroke-opacity="0.10" filter="url(#shadow)"/>

  <rect x="96" y="96" width="240" height="40" rx="12" fill="#ffffff" fill-opacity="0.08"/>
  <rect x="352" y="104" width="160" height="24" rx="12" fill="#ffffff" fill-opacity="0.10"/>
  <rect x="520" y="104" width="140" height="24" rx="12" fill="#ffffff" fill-opacity="0.10"/>
  <rect x="668" y="104" width="180" height="24" rx="12" fill="#ffffff" fill-opacity="0.10"/>

  <rect x="96" y="160" width="520" height="70" rx="16" fill="#ffffff" fill-opacity="0.08"/>
  <rect x="96" y="244" width="420" height="22" rx="11" fill="#ffffff" fill-opacity="0.08"/>
  <rect x="96" y="276" width="380" height="22" rx="11" fill="#ffffff" fill-opacity="0.08"/>

  <rect x="96" y="324" width="240" height="44" rx="18" fill="#22c55e" fill-opacity="0.95"/>
  <rect x="352" y="324" width="200" height="44" rx="18" fill="#ffffff" fill-opacity="0.10"/>

  <rect x="656" y="168" width="208" height="52" rx="18" fill="#ffffff" fill-opacity="0.08"/>
  <rect x="656" y="232" width="208" height="140" rx="18" fill="#ffffff" fill-opacity="0.08"/>
  <rect x="656" y="388" width="208" height="112" rx="18" fill="#ffffff" fill-opacity="0.08"/>

  <text x="112" y="122" font-family="ui-sans-serif, system-ui, -apple-system, Segoe UI, Roboto, Arial" font-size="18" fill="#e2e8f0" opacity="0.92">Urgency Max</text>
  <text x="112" y="206" font-family="ui-sans-serif, system-ui, -apple-system, Segoe UI, Roboto, Arial" font-size="38" font-weight="700" fill="#ffffff" opacity="0.95">High-converting landing</text>
  <text x="112" y="244" font-family="ui-sans-serif, system-ui, -apple-system, Segoe UI, Roboto, Arial" font-size="16" fill="#cbd5e1" opacity="0.92">Timer • discount badge • trust badges</text>

  <text x="672" y="202" font-family="ui-sans-serif, system-ui, -apple-system, Segoe UI, Roboto, Arial" font-size="14" fill="#cbd5e1" opacity="0.9">ENDS IN</text>
  <text x="672" y="264" font-family="ui-sans-serif, system-ui, -apple-system, Segoe UI, Roboto, Arial" font-size="30" font-weight="700" fill="#ffffff" opacity="0.95">12:34:56</text>
</svg>
